<?xml version="1.0" encoding="iso-8859-1"?>
<!-- Uploaded to: SVG Repo, www.svgrepo.com, Generator: SVG Repo Mixer Tools -->
<svg height="800px" width="800px" version="1.1" id="Layer_1" xmlns="http://www.w3.org/2000/svg" xmlns:xlink="http://www.w3.org/1999/xlink" 
	 viewBox="0 0 512 512" xml:space="preserve">
<path style="fill:#5B7A7F;" d="M427.538,44.887L320.674,151.751v28.797v21.558H191.326v-21.558v-28.797L84.462,44.887
	c-8.418-8.419-8.418-22.069,0-30.487l0,0c8.418-8.419,22.069-8.419,30.487,0l110.772,110.772c8.03,8.03,18.922,12.541,30.279,12.541
	s22.249-4.511,30.279-12.541L397.051,14.399c8.418-8.419,22.069-8.419,30.487,0l0,0C435.958,22.818,435.958,36.468,427.538,44.887z"
	/>
<path style="fill:#F4C064;" d="M299.116,417.685c0,23.812-19.304,43.116-43.116,43.116s-43.116-19.304-43.116-43.116
	s19.304-43.116,43.116-43.116S299.116,393.873,299.116,417.685z M148.21,320.674h-43.116v161.684
	c0,11.906,9.651,21.558,21.558,21.558l0,0c11.906,0,21.558-9.651,21.558-21.558V320.674z M363.789,482.359
	c0,11.906,9.651,21.558,21.558,21.558l0,0c11.906,0,21.558-9.651,21.558-21.558V320.674h-43.116V482.359z"/>
<path style="fill:#F4AB53;" d="M256,374.569v86.232c-23.812,0-43.116-19.304-43.116-43.116S232.188,374.569,256,374.569z"/>
<path style="fill:#8E5B8E;" d="M126.653,299.117h107.789v43.116H105.095v-21.558C105.095,308.768,114.746,299.117,126.653,299.117z
	 M385.347,299.117h-97.011v43.116h118.568v-21.558C406.905,308.768,397.254,299.117,385.347,299.117z"/>
<path style="fill:#AF7AAE;" d="M288.337,342.232h-64.674c-35.718,0-64.674-28.955-64.674-64.674v-75.453
	c0-11.906,9.651-21.558,21.558-21.558h150.905c11.906,0,21.558,9.651,21.558,21.558v75.453
	C353.01,313.277,324.055,342.232,288.337,342.232z"/>
<path d="M471.579,495.832h-59.832c2.072-4.044,3.242-8.625,3.242-13.474v-161.69c0-16.345-13.297-29.643-29.642-29.643h-25.503
	c0.821-4.369,1.25-8.871,1.25-13.474v-75.455c0-16.345-13.297-29.643-29.642-29.643h-2.695v-17.365L433.254,50.591
	c11.558-11.558,11.558-30.365,0-41.924c-11.558-11.556-30.362-11.556-41.92,0L280.562,119.442
	c-6.561,6.561-15.285,10.175-24.563,10.175c-9.279,0-18.002-3.614-24.563-10.175L120.665,8.668
	c-11.558-11.556-30.362-11.556-41.92,0c-11.558,11.558-11.558,30.365,0,41.924l104.498,104.498v17.365h-2.695
	c-16.345,0-29.642,13.298-29.642,29.643v75.455c0,4.604,0.429,9.106,1.25,13.474h-25.503c-16.345,0-29.642,13.298-29.642,29.643
	v161.689c0,4.848,1.171,9.429,3.242,13.474H40.421c-4.465,0-8.084,3.62-8.084,8.084S35.956,512,40.421,512h431.158
	c4.465,0,8.084-3.62,8.084-8.084S476.043,495.832,471.579,495.832z M90.178,39.157c-5.254-5.254-5.254-13.801,0-19.055
	c5.255-5.255,13.802-5.253,19.055,0l110.772,110.775c9.615,9.615,22.398,14.909,35.995,14.909c13.598,0,26.38-5.295,35.995-14.909
	L402.767,20.102c5.255-5.255,13.802-5.253,19.055,0c5.254,5.254,5.254,13.801,0,19.055L314.957,146.024
	c-1.517,1.517-2.368,3.573-2.368,5.717v20.713H199.41v-20.713c0-2.144-0.852-4.201-2.368-5.717L90.178,39.157z M167.074,202.097
	c0-7.43,6.044-13.474,13.474-13.474h150.905c7.43,0,13.474,6.045,13.474,13.474v75.455c0,31.204-25.385,56.591-56.589,56.591
	h-64.674c-31.204,0-56.589-25.387-56.589-56.591V202.097z M113.179,320.669c0-7.43,6.044-13.474,13.474-13.474h30.567
	c4.722,10.544,11.884,19.767,20.76,26.948h-64.801V320.669z M140.126,482.358c0,7.43-6.044,13.474-13.474,13.474
	s-13.474-6.045-13.474-13.474V350.312h26.947V482.358z M153.052,495.832c2.072-4.044,3.242-8.625,3.242-13.474V350.312h199.411
	v132.045c0,4.848,1.171,9.429,3.242,13.474H153.052V495.832z M398.821,482.358c0,7.43-6.044,13.474-13.474,13.474
	s-13.474-6.045-13.474-13.474V350.312h26.947V482.358z M398.821,334.143H334.02c8.876-7.18,16.038-16.404,20.76-26.948h30.567
	c7.43,0,13.474,6.045,13.474,13.474V334.143z M256,366.481c-28.231,0-51.2,22.969-51.2,51.201c0,28.232,22.969,51.201,51.2,51.201
	s51.2-22.968,51.2-51.2C307.2,389.45,284.231,366.481,256,366.481z M256,452.714c-19.316,0-35.032-15.715-35.032-35.033
	c0-19.317,15.716-35.033,35.032-35.033s35.032,15.715,35.032,35.033C291.031,437,275.316,452.714,256,452.714z"/>
</svg>